{
  "accessors": [
    {
      "bufferView": 2,
      "componentType": 5126,
      "count": 2529,
      "max": [
        44.103515625,
        77.314453125,
        80.818359375
      ],
      "min": [
        -44.1416015625,
        -0.18403244018554688,
        -152.49609375
      ],
      "type": "VEC3"
    },
    {
      "bufferView": 2,
      "byteOffset": 30348,
      "componentType": 5126,
      "count": 2529,
      "max": [
        0.9998098015785217,
        0.9997252821922302,
        0.997410237789154
      ],
      "min": [
        -0.9998102188110352,
        -0.9999969601631165,
        -0.914767324924469
      ],
      "type": "VEC3"
    },
    {
      "bufferView": 1,
      "componentType": 5126,
      "count": 2529,
      "max": [
        0.99609375,
        0.989227294921875
      ],
      "min": [
        0.004024505615234375,
        0.0048828125
      ],
      "type": "VEC2"
    },
    {
      "bufferView": 1,
      "byteOffset": 20232,
      "componentType": 5126,
      "count": 2529,
      "max": [
        90112.0,
        118529.0
      ],
      "min": [
        -4312.0,
        -118527.0
      ],
      "type": "VEC2"
    },
    {
      "bufferView": 0,
      "componentType": 5125,
      "count": 11250,
      "type": "SCALAR"
    }
  ],
  "asset": {
    "extras": {
      "author": "ann55010970637 (https://sketchfab.com/ann55010970637)",
      "license": "CC-BY-4.0 (http://creativecommons.org/licenses/by/4.0/)",
      "source": "https://sketchfab.com/3d-models/great-white-shark-7c8c73a556ad407ebf395137aab9c438",
      "title": "Great White Shark"
    },
    "generator": "Sketchfab-13.31.0",
    "version": "2.0"
  },
  "bufferViews": [
    {
      "buffer": 0,
      "byteLength": 45000,
      "name": "floatBufferViews",
      "target": 34963
    },
    {
      "buffer": 0,
      "byteLength": 40464,
      "byteOffset": 45000,
      "byteStride": 8,
      "name": "floatBufferViews",
      "target": 34962
    },
    {
      "buffer": 0,
      "byteLength": 60696,
      "byteOffset": 85464,
      "byteStride": 12,
      "name": "floatBufferViews",
      "target": 34962
    }
  ],
  "buffers": [
    {
      "byteLength": 146160,
      "uri": "scene.bin"
    }
  ],
  "images": [
    {
      "uri": "textures/01_-_Default_baseColor.png"
    },
    {
      "uri": "textures/01_-_Default_metallicRoughness.png"
    }
  ],
  "materials": [
    {
      "doubleSided": true,
      "emissiveFactor": [
        0.47527232734190134,
        0.47527232734190134,
        0.47527232734190134
      ],
      "emissiveTexture": {
        "index": 0
      },
      "name": "01_-_Default",
      "pbrMetallicRoughness": {
        "baseColorTexture": {
          "index": 0
        },
        "metallicFactor": 0.1448561619334772,
        "metallicRoughnessTexture": {
          "index": 1
        }
      }
    }
  ],
  "meshes": [
    {
      "name": "Shark_01SG1_01 - Default_0",
      "primitives": [
        {
          "attributes": {
            "NORMAL": 1,
            "POSITION": 0,
            "TEXCOORD_0": 2,
            "TEXCOORD_1": 3
          },
          "indices": 4,
          "material": 0,
          "mode": 4
        }
      ]
    }
  ],
  "nodes": [
    {
      "children": [
        1
      ],
      "matrix": [
        1.0,
        0.0,
        0.0,
        0.0,
        0.0,
        2.220446049250313e-16,
        -1.0,
        0.0,
        0.0,
        1.0,
        2.220446049250313e-16,
        0.0,
        0.0,
        0.0,
        0.0,
        1.0
      ],
      "name": "Sketchfab_model"
    },
    {
      "children": [
        2
      ],
      "matrix": [
        0.30480000376701355,
        0.0,
        0.0,
        0.0,
        0.0,
        0.0,
        0.30480000376701355,
        0.0,
        0.0,
        -0.30480000376701355,
        0.0,
        0.0,
        0.0,
        0.0,
        0.0,
        1.0
      ],
      "name": "megalodon.FBX"
    },
    {
      "children": [
        3
      ],
      "name": "RootNode"
    },
    {
      "children": [
        4
      ],
      "matrix": [
        1.0,
        0.0,
        0.0,
        0.0,
        0.0,
        0.999999999999999,
        4.3711388508782534e-08,
        0.0,
        0.0,
        -4.3711388508782534e-08,
        0.999999999999999,
        0.0,
        0.0,
        0.0,
        0.0,
        1.0
      ],
      "name": "Shark_01SG1"
    },
    {
      "mesh": 0,
      "name": "Shark_01SG1_01 - Default_0"
    }
  ],
  "samplers": [
    {
      "magFilter": 9729,
      "minFilter": 9987,
      "wrapS": 10497,
      "wrapT": 10497
    }
  ],
  "scene": 0,
  "scenes": [
    {
      "name": "Sketchfab_Scene",
      "nodes": [
        0
      ]
    }
  ],
  "textures": [
    {
      "sampler": 0,
      "source": 0
    },
    {
      "sampler": 0,
      "source": 1
    }
  ]
}
